TITLE ""
FILE "2Q_t_0818-0834.mp3" MP3
  TRACK 01 AUDIO
    TITLE "2Q_t_0818-0834_01"
    INDEX 01 00:00:00
  TRACK 02 AUDIO
    TITLE "2Q_t_0818-0834_02"
    INDEX 01 00:00:65
  TRACK 03 AUDIO
    TITLE "2Q_t_0818-0834_03"
    INDEX 01 00:01:49
  TRACK 04 AUDIO
    TITLE "2Q_t_0818-0834_04"
    INDEX 01 00:02:56
  TRACK 05 AUDIO
    TITLE "2Q_t_0818-0834_05"
    INDEX 01 00:03:24
  TRACK 06 AUDIO
    TITLE "2Q_t_0818-0834_06"
    INDEX 01 00:04:63
  TRACK 07 AUDIO
    TITLE "2Q_t_0818-0834_07"
    INDEX 01 00:05:35
  TRACK 08 AUDIO
    TITLE "2Q_t_0818-0834_08"
    INDEX 01 00:07:01
  TRACK 09 AUDIO
    TITLE "2Q_t_0818-0834_09"
    INDEX 01 00:07:46
  TRACK 10 AUDIO
    TITLE "2Q_t_0818-0834_10"
    INDEX 01 00:08:49
  TRACK 11 AUDIO
    TITLE "2Q_t_0818-0834_11"
    INDEX 01 00:09:19
  TRACK 12 AUDIO
    TITLE "2Q_t_0818-0834_12"
    INDEX 01 00:12:19
  TRACK 13 AUDIO
    TITLE "2Q_t_0818-0834_13"
    INDEX 01 00:12:62
  TRACK 14 AUDIO
    TITLE "2Q_t_0818-0834_14"
    INDEX 01 00:13:64
  TRACK 15 AUDIO
    TITLE "2Q_t_0818-0834_15"
    INDEX 01 00:14:38
  TRACK 16 AUDIO
    TITLE "2Q_t_0818-0834_16"
    INDEX 01 00:18:22
  TRACK 17 AUDIO
    TITLE "2Q_t_0818-0834_17"
    INDEX 01 00:18:67
  TRACK 18 AUDIO
    TITLE "2Q_t_0818-0834_18"
    INDEX 01 00:20:09
  TRACK 19 AUDIO
    TITLE "2Q_t_0818-0834_19"
    INDEX 01 00:20:60
  TRACK 20 AUDIO
    TITLE "2Q_t_0818-0834_20"
    INDEX 01 00:22:26
  TRACK 21 AUDIO
    TITLE "2Q_t_0818-0834_21"
    INDEX 01 00:22:71
  TRACK 22 AUDIO
    TITLE "2Q_t_0818-0834_22"
    INDEX 01 00:23:68
  TRACK 23 AUDIO
    TITLE "2Q_t_0818-0834_23"
    INDEX 01 00:24:40
  TRACK 24 AUDIO
    TITLE "2Q_t_0818-0834_24"
    INDEX 01 00:28:28
  TRACK 25 AUDIO
    TITLE "2Q_t_0818-0834_25"
    INDEX 01 00:28:71
  TRACK 26 AUDIO
    TITLE "2Q_t_0818-0834_26"
    INDEX 01 00:30:07
  TRACK 27 AUDIO
    TITLE "2Q_t_0818-0834_27"
    INDEX 01 00:30:54
  TRACK 28 AUDIO
    TITLE "2Q_t_0818-0834_28"
    INDEX 01 00:33:27
  TRACK 29 AUDIO
    TITLE "2Q_t_0818-0834_29"
    INDEX 01 00:33:70
  TRACK 30 AUDIO
    TITLE "2Q_t_0818-0834_30"
    INDEX 01 00:35:05
  TRACK 31 AUDIO
    TITLE "2Q_t_0818-0834_31"
    INDEX 01 00:35:52
  TRACK 32 AUDIO
    TITLE "2Q_t_0818-0834_32"
    INDEX 01 00:38:72
  TRACK 33 AUDIO
    TITLE "2Q_t_0818-0834_33"
    INDEX 01 00:39:42
  TRACK 34 AUDIO
    TITLE "2Q_t_0818-0834_34"
    INDEX 01 00:40:55
  TRACK 35 AUDIO
    TITLE "2Q_t_0818-0834_35"
    INDEX 01 00:41:27
  TRACK 36 AUDIO
    TITLE "2Q_t_0818-0834_36"
    INDEX 01 00:43:12
  TRACK 37 AUDIO
    TITLE "2Q_t_0818-0834_37"
    INDEX 01 00:43:55
  TRACK 38 AUDIO
    TITLE "2Q_t_0818-0834_38"
    INDEX 01 00:45:03
  TRACK 39 AUDIO
    TITLE "2Q_t_0818-0834_39"
    INDEX 01 00:45:50
  TRACK 40 AUDIO
    TITLE "2Q_t_0818-0834_40"
    INDEX 01 00:49:26
  TRACK 41 AUDIO
    TITLE "2Q_t_0818-0834_41"
    INDEX 01 00:49:71
  TRACK 42 AUDIO
    TITLE "2Q_t_0818-0834_42"
    INDEX 01 00:51:02
  TRACK 43 AUDIO
    TITLE "2Q_t_0818-0834_43"
    INDEX 01 00:51:59
  TRACK 44 AUDIO
    TITLE "2Q_t_0818-0834_44"
    INDEX 01 00:54:41
  TRACK 45 AUDIO
    TITLE "2Q_t_0818-0834_45"
    INDEX 01 00:55:09
  TRACK 46 AUDIO
    TITLE "2Q_t_0818-0834_46"
    INDEX 01 00:56:25
  TRACK 47 AUDIO
    TITLE "2Q_t_0818-0834_47"
    INDEX 01 00:56:73
  TRACK 48 AUDIO
    TITLE "2Q_t_0818-0834_48"
    INDEX 01 00:59:48
  TRACK 49 AUDIO
    TITLE "2Q_t_0818-0834_49"
    INDEX 01 01:00:18
  TRACK 50 AUDIO
    TITLE "2Q_t_0818-0834_50"
    INDEX 01 01:01:22
  TRACK 51 AUDIO
    TITLE "2Q_t_0818-0834_51"
    INDEX 01 01:01:71
  TRACK 52 AUDIO
    TITLE "2Q_t_0818-0834_52"
    INDEX 01 01:07:13
  TRACK 53 AUDIO
    TITLE "2Q_t_0818-0834_53"
    INDEX 01 01:07:56
  TRACK 54 AUDIO
    TITLE "2Q_t_0818-0834_54"
    INDEX 01 01:08:63
  TRACK 55 AUDIO
    TITLE "2Q_t_0818-0834_55"
    INDEX 01 01:09:31
  TRACK 56 AUDIO
    TITLE "2Q_t_0818-0834_56"
    INDEX 01 01:10:56
  TRACK 57 AUDIO
    TITLE "2Q_t_0818-0834_57"
    INDEX 01 01:11:28
  TRACK 58 AUDIO
    TITLE "2Q_t_0818-0834_58"
    INDEX 01 01:14:28
  TRACK 59 AUDIO
    TITLE "2Q_t_0818-0834_59"
    INDEX 01 01:15:00
  TRACK 60 AUDIO
    TITLE "2Q_t_0818-0834_60"
    INDEX 01 01:16:27
  TRACK 61 AUDIO
    TITLE "2Q_t_0818-0834_61"
    INDEX 01 01:16:72
  TRACK 62 AUDIO
    TITLE "2Q_t_0818-0834_62"
    INDEX 01 01:19:06
  TRACK 63 AUDIO
    TITLE "2Q_t_0818-0834_63"
    INDEX 01 01:19:53
  TRACK 64 AUDIO
    TITLE "2Q_t_0818-0834_64"
    INDEX 01 01:21:05
  TRACK 65 AUDIO
    TITLE "2Q_t_0818-0834_65"
    INDEX 01 01:21:50
  TRACK 66 AUDIO
    TITLE "2Q_t_0818-0834_66"
    INDEX 01 01:22:63
  TRACK 67 AUDIO
    TITLE "2Q_t_0818-0834_67"
    INDEX 01 01:23:33
  TRACK 68 AUDIO
    TITLE "2Q_t_0818-0834_68"
    INDEX 01 01:24:38
  TRACK 69 AUDIO
    TITLE "2Q_t_0818-0834_69"
    INDEX 01 01:25:18
  TRACK 70 AUDIO
    TITLE "2Q_t_0818-0834_70"
    INDEX 01 01:26:35
